<svg width="20" height="18" viewBox="0 0 20 18" fill="none" xmlns="http://www.w3.org/2000/svg">
<path d="M9.33058 3.03601L10.0073 4.45261L10.6841 3.03601C11.3911 1.5559 12.8899 0.75 14.7341 0.75C17.2059 0.75 19.2429 2.87253 19.2499 5.51396C19.253 6.67692 18.7204 7.99759 17.8174 9.37611C16.9227 10.7419 15.7151 12.0878 14.486 13.2842C13.2599 14.4776 12.0305 15.5049 11.106 16.2347C10.6529 16.5924 10.2744 16.8775 10.0073 17.0745C9.74026 16.8775 9.36174 16.5922 8.90851 16.2343C7.98386 15.5041 6.754 14.4759 5.52707 13.2807C4.2971 12.0825 3.08808 10.7337 2.19125 9.36366C1.28622 7.98112 0.750111 6.65387 0.750111 5.48195C0.750111 2.85371 2.80632 0.75 5.28919 0.75C7.13198 0.75 8.62297 1.5548 9.33058 3.03601Z" stroke="#EBEBEB" stroke-width="1.5"/>
</svg>
