<svg width="16" height="20" viewBox="0 0 16 20" fill="none" xmlns="http://www.w3.org/2000/svg">
<path d="M15.2008 8.39995C15.2008 14 8.00078 18.8 8.00078 18.8C8.00078 18.8 0.800781 14 0.800781 8.39995C0.800781 6.49039 1.55935 4.65904 2.90961 3.30878C4.25987 1.95852 6.09122 1.19995 8.00078 1.19995C9.91034 1.19995 11.7417 1.95852 13.0919 3.30878C14.4422 4.65904 15.2008 6.49039 15.2008 8.39995Z" stroke="#333333" stroke-width="1.5" stroke-linecap="round" stroke-linejoin="round"/>
<path d="M8.00078 10.8C9.32626 10.8 10.4008 9.72543 10.4008 8.39995C10.4008 7.07447 9.32626 5.99995 8.00078 5.99995C6.6753 5.99995 5.60078 7.07447 5.60078 8.39995C5.60078 9.72543 6.6753 10.8 8.00078 10.8Z" stroke="#333333" stroke-width="1.5" stroke-linecap="round" stroke-linejoin="round"/>
</svg>
