<svg width="22" height="25" viewBox="0 0 22 25" fill="none" xmlns="http://www.w3.org/2000/svg">
<path d="M1.71484 6.05721L4.95294 1.71436H17.9053L21.1434 6.05721M1.71484 6.05721V21.2572C1.71484 21.8331 1.94228 22.3854 2.34712 22.7926C2.75196 23.1999 3.30104 23.4286 3.87357 23.4286H18.9847C19.5572 23.4286 20.1063 23.1999 20.5111 22.7926C20.916 22.3854 21.1434 21.8331 21.1434 21.2572V6.05721M1.71484 6.05721H21.1434M15.7466 10.4001C15.7466 11.5519 15.2917 12.6565 14.482 13.4709C13.6724 14.2854 12.5742 14.7429 11.4291 14.7429C10.2841 14.7429 9.1859 14.2854 8.37622 13.4709C7.56654 12.6565 7.11167 11.5519 7.11167 10.4001" stroke="#EBEBEB" stroke-width="1.5" stroke-linecap="round" stroke-linejoin="round"/>
</svg>
